<svg
    xmlns="http://www.w3.org/2000/svg"
    width="128"
    height="128"
    viewBox="0 0 24 24"
    class="lucide lucide-braces-icon lucide-braces"
>
    <style>
        .bg {
            fill: white;
            stroke: none;
        }

        .braces {
            stroke: #0a0a0c;
            stroke-width: 2;
            fill: none;
            stroke-linecap: round;
            stroke-linejoin: round;
        }
    </style>

    <rect class="bg" x="0" y="0" width="24" height="24" rx="6" ry="6"/>
    <path class="braces" d="M8 3H7a2 2 0 0 0-2 2v5a2 2 0 0 1-2 2 2 2 0 0 1 2 2v5c0 1.1.9 2 2 2h1"/>
    <path class="braces" d="M16 21h1a2 2 0 0 0 2-2v-5c0-1.1.9-2 2-2a2 2 0 0 1-2-2V5a2 2 0 0 0-2-2h-1"/>
</svg>
